<svg xmlns="http://www.w3.org/2000/svg" width="1200" height="630" viewBox="0 0 1200 630" role="img" aria-labelledby="title desc">
  <title id="title">PritamChatbot College AI Assistant</title>
  <desc id="desc">An independent student project for college information assistance at Government Polytechnic Unnao.</desc>
  <defs>
    <linearGradient id="background" x1="0" y1="0" x2="1" y2="1"><stop stop-color="#171a3b"/><stop offset="1" stop-color="#34306e"/></linearGradient>
    <linearGradient id="accent" x1="0" y1="0" x2="1" y2="0"><stop stop-color="#83e3d2"/><stop offset="1" stop-color="#b2a9ff"/></linearGradient>
  </defs>
  <rect width="1200" height="630" fill="url(#background)"/>
  <circle cx="1040" cy="80" r="230" fill="#7771ea" opacity=".15"/>
  <circle cx="40" cy="620" r="270" fill="#65d7c3" opacity=".12"/>
  <rect x="88" y="86" width="68" height="68" rx="20" fill="url(#accent)"/>
  <path d="M108 107h28a10 10 0 0 1 10 10v15a10 10 0 0 1-10 10h-7l-12 9v-9h-9a10 10 0 0 1-10-10v-15a10 10 0 0 1 10-10z" fill="#22214b"/>
  <text x="88" y="280" fill="#fff" font-family="Arial, sans-serif" font-size="76" font-weight="700">PritamChatbot</text>
  <text x="90" y="356" fill="#c9c8ff" font-family="Arial, sans-serif" font-size="38">AI Assistant for Government Polytechnic Unnao</text>
  <text x="90" y="452" fill="#fff" font-family="Arial, sans-serif" font-size="28">Student Project · College information assistance</text>
  <text x="90" y="510" fill="#c6c9df" font-family="Arial, sans-serif" font-size="23">Not an official college service</text>
</svg>
